#!OML:ASF F:\VICON\USERDATA\INSTALL\rory3\rory3.ASF
:FULLY-SPECIFIED
:DEGREES
98
root 0.3657223533483632 17.809988979194564 39.88785239130999 -2.9907691003452985 -1.2261874737185334 1.4139415670478948
lfemur 1.0116490601968522 -3.5393109073007105 -26.870103821791915
ltibia 20.329717487481087
lfoot -5.901837287910048 -0.11840958393185996
ltoes -8.721901966583518
rfemur -28.35864643136707 -0.530205815524301 20.426309107734905
rtibia 43.940877386496744
rfoot -6.7611018053600755 -10.170367061436849
rtoes 3.6113517593616598
lowerback nan 0.12000401017595241 -2.3491646533636192
upperback 0.9525104782138387 -0.11927453469391791 0.954505679074631
thorax -4.8147689785868915 -0.026239651635887262 2.3968995154217123
lowerneck -16.800942610971905 -2.8000039378446275 -3.1866750472522405
upperneck 19.099663526402995 -3.6416785341348747 2.1909192656074006
head 8.81247932143136 -1.6881888580927786 0.725451438770163
lclavicle -1.0655345765548702e-15 6.253053633909558e-16
lhumerus -26.49822156712528 -2.5217317221264626 83.17311591512538
lradius 27.524027676754617
lwrist 6.350111511503955
lhand -26.548340177971514 24.97551757359508
lfingers nan
lthumb 0.12532263820717626 55.214176709832586
rclavicle -1.4233753735549976e-15 3.645486214848368e-16
rhumerus -29.13704200776924 -18.650018071434292 -79.12927636728328
rradius 24.827128186293024
rwrist 4.196388201535631
rhand -17.76838353474284 nan
rfingers nan
rthumb 8.373688510978141 -7.403820721912133
99
root 0.35407342669528963 17.769282359355937 40.21890892245077 -2.3271421484486754 -0.6817215404411197 2.0951554800590704
lfemur 4.5643718338107835 -3.063226543873589 -27.576542894981586
ltibia 16.636531279748457
lfoot -4.1482293640197145 -2.3189263463675625
ltoes -11.409697412610074
rfemur -27.917167954926523 1.5059353956107184 19.216550948705148
rtibia 31.512493976939886
rfoot -7.075553259369421 -12.62560288569507
rtoes 3.5345547150706316
lowerback nan -0.10808608372529027 -2.9430439539830084
upperback 0.9384310147986381 -0.50041428772609 0.9407460024315587
thorax -4.732907518736477 -0.2212429019534966 2.761560206682436
lowerneck -16.899663035199847 -2.7666860330323115 -3.1880205684280076
upperneck 19.081086579299033 -3.5828948027967455 2.145801064687725
head 8.81590718448502 -1.6675945743290137 0.7181179106672926
lclavicle -1.1810781475628937e-15 5.337976348924603e-16
lhumerus -25.65334502918417 -3.0674428667662497 83.20793549062844
lradius 28.503233642842705
lwrist 6.827633263802046
lhand -26.59941173245869 25.181258675296537
lfingers nan
lthumb 0.03306754692281855 55.377080835256535
rclavicle -1.4594553133136664e-15 3.3481903101553186e-16
rhumerus -29.352241005784833 -18.926452162356924 -78.79925479947767
rradius 24.744474240501916
rwrist 4.350550368858861
rhand -17.810999947453684 nan
rfingers nan
rthumb 8.327884408891801 -7.3510051830199155
100
root 0.30658185832390566 17.764689380352365 40.11296814966394 -1.7208988687122946 -0.2655518578566307 2.3162755085227302
lfemur 8.048124162582841 -2.9809848497328124 -27.695207113249253
ltibia 13.80387647742096
lfoot -2.615511672574911 -3.640259439079337
ltoes -13.588779887165288
rfemur -27.36311159216924 4.48564293842193 17.665066413583304
rtibia 21.050866529416034
rfoot -9.576723719375064 -15.41105961021903
rtoes 2.218911855490119
lowerback nan -0.3531045361272992 -3.31999432154561
upperback 0.9251757943300207 -0.8478701622469562 0.9920396889180543
thorax -4.630599896632132 -0.3933538262234867 3.0885195268361385
lowerneck -16.985415008257785 -2.7224425058005637 -3.1600798470531393
upperneck 19.101109499107153 -3.5077608345338724 2.067140949405192
head 8.831084839875542 -1.6419620976604716 0.7000721131724762
lclavicle -1.2221117596995794e-15 4.996850761018272e-16
lhumerus -25.091346204642814 -3.4095672065042324 83.23932173472618
lradius 29.307845361669123
lwrist 7.244489318133675
lhand -26.83646461986371 24.912476376729472
lfingers nan
lthumb -0.2052495758663483 55.09786593628434
rclavicle -1.441628327208179e-15 3.486597620998913e-16
rhumerus -29.577715594976702 -19.385507429193254 -78.3982379993469
rradius 24.60037052024829
rwrist 4.56867367400563
rhand -17.833503041483105 nan
rfingers nan
rthumb 8.297284036459523 -7.276172014987461
101
root 0.2550060833411496 17.759197428227818 40.095704969563656 -1.1994084254260535 0.2558291181229029 2.2616868835242436
lfemur 10.988375492884575 -3.3868125285981443 -27.475847948543297
ltibia 12.863175926938041
lfoot -2.158409113862475 -4.479705018223423
ltoes -14.41401728523478
rfemur -27.334366837935665 6.220789481008743 16.61869738839823
rtibia 16.830906773649005
rfoot -11.592375798802339 -15.375461495863041
rtoes 0.05524091073840465
lowerback nan -0.5847040117058527 -3.5064486092619838
upperback 0.8727160381830846 -1.1202362065331979 1.1243201222646717
thorax -4.577413908637698 -0.5289305652569258 3.3422463718858473
lowerneck -17.070004272653826 -2.6722584100722186 -3.1156260240385034
upperneck 19.163883149772193 -3.421507049969948 1.9615805836170757
head 8.861355499572678 -1.6132009874234912 0.6732093291583691
lclavicle -1.2844709956563023e-15 4.375823692515325e-16
lhumerus -24.858757357484766 -3.561491131658605 83.27885655377132
lradius 29.88530570785464
lwrist 7.557477932595196
lhand -27.209316393208045 24.305221631555828
lfingers nan
lthumb -0.5409598549723545 54.535762179736174
rclavicle -1.4356716693311016e-15 3.4587728924837955e-16
rhumerus -29.8482522014572 -20.04091573415578 -77.9367381910511
rradius 24.394051880950485
rwrist 4.863913303968874
rhand -17.824376491581308 nan
rfingers nan
rthumb 8.274166397028132 -7.264257085361846
102
root 0.18195397916997574 17.733410051465142 40.423053929644425 -0.9772361361291468 0.42230636410805866 1.9661437415811087
lfemur 13.056164348474553 -4.089088754717707 -27.02669369514402
ltibia 14.369442009843343
lfoot -2.3940263814310483 -4.620880649325542
ltoes -14.193452027397093
rfemur -27.640737929418563 5.13830380396181 18.022809232902922
rtibia 18.631319128304057
rfoot -11.025573433144896 -12.223911234072796
rtoes -1.4595299025737138
lowerback nan -0.7384847556952515 -3.5330767681668007
upperback 0.8199580224347219 -1.2687531421679785 1.2942698138083673
thorax -4.539767048677955 -0.6013403009075706 3.480271738930162
lowerneck -17.141743766979925 -2.6169319762197545 -3.048552131722942
upperneck 19.261160005816425 -3.32727559825189 1.8334651221004576
head 8.906059649923707 -1.5817816005053005 0.6376632609439332
lclavicle -1.3497663758972781e-15 3.714228671954508e-16
lhumerus -24.95866862175097 -3.537774184075939 83.33776954537122
lradius 30.21913558596163
lwrist 7.742915061815152
lhand -27.626435969149632 23.57610897236352
lfingers nan
lthumb -0.8808351559619951 53.93490541409043
rclavicle -1.4442730724069305e-15 3.301846717788235e-16
rhumerus -30.123887401802268 -20.779553217344237 -77.46402285658795
rradius 24.138777955712623
rwrist 5.224432660412599
rhand -17.79035112064943 nan
rfingers nan
rthumb 8.271676106959763 -7.310330733114473
